<?xml version="1.0" encoding="UTF-8" standalone="no"?>
<!DOCTYPE svg PUBLIC "-//W3C//DTD SVG 1.1//EN" "http://www.w3.org/Graphics/SVG/1.1/DTD/svg11.dtd">
<svg width="100%" height="100%" viewBox="0 0 885 226" version="1.1" xmlns="http://www.w3.org/2000/svg" xmlns:xlink="http://www.w3.org/1999/xlink" xml:space="preserve" style="fill-rule:evenodd;clip-rule:evenodd;stroke-linejoin:round;stroke-miterlimit:2;">
    <g transform="matrix(1,0,0,1,-517.61,-744.369)">
        <g transform="matrix(4.02911,0,0,4.02911,-1510.54,-803.155)">
            <g transform="matrix(50,0,0,50,502.824,415.933)">
                <path d="M0.232,-0.045C0.279,-0.194 0.324,-0.344 0.369,-0.494L0.492,-0.045L0.567,-0.045L0.723,-0.623L0.641,-0.623L0.528,-0.196L0.416,-0.623L0.325,-0.623C0.307,-0.561 0.285,-0.486 0.266,-0.421C0.245,-0.347 0.223,-0.273 0.201,-0.195L0.092,-0.623L0.011,-0.623L0.158,-0.045L0.232,-0.045Z" style="fill:white;fill-rule:nonzero;"/>
            </g>
            <g transform="matrix(50,0,0,50,539.424,415.933)">
                <path d="M0.159,-0.623L0.075,-0.623L0.075,-0.045L0.158,-0.045L0.159,-0.623Z" style="fill:white;fill-rule:nonzero;"/>
            </g>
            <g transform="matrix(50,0,0,50,551.074,415.933)">
                <path d="M0.07,-0.623L0.07,-0.045L0.392,-0.045L0.392,-0.13L0.154,-0.13L0.154,-0.623L0.07,-0.623Z" style="fill:white;fill-rule:nonzero;"/>
            </g>
            <g transform="matrix(50,0,0,50,571.924,415.933)">
                <path d="M0.266,-0.541C0.376,-0.541 0.444,-0.445 0.444,-0.332C0.444,-0.224 0.376,-0.126 0.269,-0.126L0.149,-0.126L0.149,-0.541L0.266,-0.541ZM0.274,-0.045C0.426,-0.045 0.523,-0.181 0.523,-0.335C0.523,-0.489 0.423,-0.623 0.269,-0.623L0.22,-0.623C0.203,-0.623 0.186,-0.624 0.17,-0.624L0.065,-0.624L0.065,-0.045L0.274,-0.045Z" style="fill:white;fill-rule:nonzero;"/>
            </g>
            <g transform="matrix(50,0,0,50,599.524,415.933)">
                <path d="M0.232,-0.045C0.279,-0.194 0.324,-0.344 0.369,-0.494L0.492,-0.045L0.567,-0.045L0.723,-0.623L0.641,-0.623L0.528,-0.196L0.416,-0.623L0.325,-0.623C0.307,-0.561 0.285,-0.486 0.266,-0.421C0.245,-0.347 0.223,-0.273 0.201,-0.195L0.092,-0.623L0.011,-0.623L0.158,-0.045L0.232,-0.045Z" style="fill:white;fill-rule:nonzero;"/>
            </g>
            <g transform="matrix(50,0,0,50,636.124,415.933)">
                <path d="M0.302,-0.637C0.145,-0.637 0.033,-0.49 0.033,-0.333C0.033,-0.177 0.145,-0.03 0.302,-0.03C0.46,-0.03 0.571,-0.177 0.571,-0.333C0.571,-0.49 0.46,-0.637 0.302,-0.637ZM0.302,-0.551C0.414,-0.551 0.49,-0.445 0.49,-0.333C0.49,-0.222 0.414,-0.116 0.302,-0.116C0.19,-0.116 0.114,-0.222 0.114,-0.333C0.114,-0.445 0.19,-0.551 0.302,-0.551Z" style="fill:white;fill-rule:nonzero;"/>
            </g>
            <g transform="matrix(50,0,0,50,666.474,415.933)">
                <path d="M0.302,-0.637C0.145,-0.637 0.033,-0.49 0.033,-0.333C0.033,-0.177 0.145,-0.03 0.302,-0.03C0.46,-0.03 0.571,-0.177 0.571,-0.333C0.571,-0.49 0.46,-0.637 0.302,-0.637ZM0.302,-0.551C0.414,-0.551 0.49,-0.445 0.49,-0.333C0.49,-0.222 0.414,-0.116 0.302,-0.116C0.19,-0.116 0.114,-0.222 0.114,-0.333C0.114,-0.445 0.19,-0.551 0.302,-0.551Z" style="fill:white;fill-rule:nonzero;"/>
            </g>
            <g transform="matrix(50,0,0,50,696.824,415.933)">
                <path d="M0.266,-0.541C0.376,-0.541 0.444,-0.445 0.444,-0.332C0.444,-0.224 0.376,-0.126 0.269,-0.126L0.149,-0.126L0.149,-0.541L0.266,-0.541ZM0.274,-0.045C0.426,-0.045 0.523,-0.181 0.523,-0.335C0.523,-0.489 0.423,-0.623 0.269,-0.623L0.22,-0.623C0.203,-0.623 0.186,-0.624 0.17,-0.624L0.065,-0.624L0.065,-0.045L0.274,-0.045Z" style="fill:white;fill-rule:nonzero;"/>
            </g>
        </g>
        <g transform="matrix(0.598244,0,0,0.598244,339.694,750.326)">
            <g transform="matrix(125,0,0,125,338.757,370.393)">
                <path d="M0.232,-0.045C0.279,-0.194 0.324,-0.344 0.369,-0.494L0.492,-0.045L0.567,-0.045L0.723,-0.623L0.641,-0.623L0.528,-0.196L0.416,-0.623L0.325,-0.623C0.307,-0.561 0.285,-0.486 0.266,-0.421C0.245,-0.347 0.223,-0.273 0.201,-0.195L0.092,-0.623L0.011,-0.623L0.158,-0.045L0.232,-0.045Z" style="fill:white;fill-rule:nonzero;"/>
            </g>
            <g transform="matrix(125,0,0,125,430.257,370.393)">
                <path d="M0.159,-0.623L0.075,-0.623L0.075,-0.045L0.158,-0.045L0.159,-0.623Z" style="fill:white;fill-rule:nonzero;"/>
            </g>
            <g transform="matrix(125,0,0,125,459.382,370.393)">
                <path d="M0.07,-0.623L0.07,-0.045L0.392,-0.045L0.392,-0.13L0.154,-0.13L0.154,-0.623L0.07,-0.623Z" style="fill:white;fill-rule:nonzero;"/>
            </g>
            <g transform="matrix(125,0,0,125,511.507,370.393)">
                <path d="M0.266,-0.541C0.376,-0.541 0.444,-0.445 0.444,-0.332C0.444,-0.224 0.376,-0.126 0.269,-0.126L0.149,-0.126L0.149,-0.541L0.266,-0.541ZM0.274,-0.045C0.426,-0.045 0.523,-0.181 0.523,-0.335C0.523,-0.489 0.423,-0.623 0.269,-0.623L0.22,-0.623C0.203,-0.623 0.186,-0.624 0.17,-0.624L0.065,-0.624L0.065,-0.045L0.274,-0.045Z" style="fill:white;fill-rule:nonzero;"/>
            </g>
            <g transform="matrix(125,0,0,125,580.507,370.393)">
                <path d="M0.232,-0.045C0.279,-0.194 0.324,-0.344 0.369,-0.494L0.492,-0.045L0.567,-0.045L0.723,-0.623L0.641,-0.623L0.528,-0.196L0.416,-0.623L0.325,-0.623C0.307,-0.561 0.285,-0.486 0.266,-0.421C0.245,-0.347 0.223,-0.273 0.201,-0.195L0.092,-0.623L0.011,-0.623L0.158,-0.045L0.232,-0.045Z" style="fill:white;fill-rule:nonzero;"/>
            </g>
            <g transform="matrix(125,0,0,125,672.007,370.393)">
                <path d="M0.302,-0.637C0.145,-0.637 0.033,-0.49 0.033,-0.333C0.033,-0.177 0.145,-0.03 0.302,-0.03C0.46,-0.03 0.571,-0.177 0.571,-0.333C0.571,-0.49 0.46,-0.637 0.302,-0.637ZM0.302,-0.551C0.414,-0.551 0.49,-0.445 0.49,-0.333C0.49,-0.222 0.414,-0.116 0.302,-0.116C0.19,-0.116 0.114,-0.222 0.114,-0.333C0.114,-0.445 0.19,-0.551 0.302,-0.551Z" style="fill:white;fill-rule:nonzero;"/>
            </g>
            <g transform="matrix(125,0,0,125,747.882,370.393)">
                <path d="M0.302,-0.637C0.145,-0.637 0.033,-0.49 0.033,-0.333C0.033,-0.177 0.145,-0.03 0.302,-0.03C0.46,-0.03 0.571,-0.177 0.571,-0.333C0.571,-0.49 0.46,-0.637 0.302,-0.637ZM0.302,-0.551C0.414,-0.551 0.49,-0.445 0.49,-0.333C0.49,-0.222 0.414,-0.116 0.302,-0.116C0.19,-0.116 0.114,-0.222 0.114,-0.333C0.114,-0.445 0.19,-0.551 0.302,-0.551Z" style="fill:white;fill-rule:nonzero;"/>
            </g>
            <g transform="matrix(125,0,0,125,823.757,370.393)">
                <path d="M0.266,-0.541C0.376,-0.541 0.444,-0.445 0.444,-0.332C0.444,-0.224 0.376,-0.126 0.269,-0.126L0.149,-0.126L0.149,-0.541L0.266,-0.541ZM0.274,-0.045C0.426,-0.045 0.523,-0.181 0.523,-0.335C0.523,-0.489 0.423,-0.623 0.269,-0.623L0.22,-0.623C0.203,-0.623 0.186,-0.624 0.17,-0.624L0.065,-0.624L0.065,-0.045L0.274,-0.045Z" style="fill:white;fill-rule:nonzero;"/>
            </g>
            <g transform="matrix(125,0,0,125,920.257,370.393)">
                <path d="M0.431,-0.623L0.072,-0.623L0.072,-0.045L0.431,-0.045L0.431,-0.13L0.156,-0.13L0.156,-0.297L0.39,-0.297L0.39,-0.382L0.156,-0.382L0.156,-0.538L0.431,-0.538L0.431,-0.623Z" style="fill:white;fill-rule:nonzero;"/>
            </g>
            <g transform="matrix(125,0,0,125,978.257,370.393)">
                <path d="M0.353,-0.267L0.177,-0.267L0.265,-0.505L0.353,-0.267ZM0.385,-0.184L0.437,-0.045L0.522,-0.045L0.305,-0.623L0.225,-0.623L0.008,-0.045L0.093,-0.045L0.145,-0.184L0.385,-0.184Z" style="fill:white;fill-rule:nonzero;"/>
            </g>
            <g transform="matrix(125,0,0,125,1044.51,370.393)">
                <path d="M0.021,-0.114C0.073,-0.06 0.143,-0.03 0.208,-0.03C0.312,-0.03 0.399,-0.095 0.399,-0.203C0.399,-0.313 0.317,-0.342 0.239,-0.369C0.179,-0.39 0.122,-0.411 0.121,-0.473C0.122,-0.525 0.175,-0.553 0.215,-0.553C0.252,-0.553 0.295,-0.536 0.33,-0.502L0.393,-0.563C0.34,-0.613 0.276,-0.636 0.216,-0.636C0.121,-0.636 0.033,-0.572 0.033,-0.467C0.033,-0.346 0.122,-0.319 0.203,-0.291C0.258,-0.272 0.309,-0.252 0.309,-0.196C0.308,-0.139 0.259,-0.114 0.204,-0.113C0.165,-0.114 0.118,-0.138 0.084,-0.175L0.021,-0.114Z" style="fill:white;fill-rule:nonzero;"/>
            </g>
            <g transform="matrix(125,0,0,125,1097.76,370.393)">
                <path d="M0.174,-0.54L0.174,-0.045L0.257,-0.045L0.257,-0.54L0.417,-0.54L0.417,-0.623L0.013,-0.623L0.013,-0.54L0.174,-0.54Z" style="fill:white;fill-rule:nonzero;"/>
            </g>
            <g transform="matrix(125,0,0,125,1151.13,370.393)">
                <path d="M0.431,-0.623L0.072,-0.623L0.072,-0.045L0.431,-0.045L0.431,-0.13L0.156,-0.13L0.156,-0.297L0.39,-0.297L0.39,-0.382L0.156,-0.382L0.156,-0.538L0.431,-0.538L0.431,-0.623Z" style="fill:white;fill-rule:nonzero;"/>
            </g>
            <g transform="matrix(125,0,0,125,1209.13,370.393)">
                <path d="M0.178,-0.543C0.198,-0.543 0.218,-0.544 0.237,-0.544C0.308,-0.544 0.362,-0.536 0.362,-0.459C0.362,-0.408 0.325,-0.381 0.271,-0.381L0.149,-0.381L0.149,-0.543L0.178,-0.543ZM0.46,-0.045L0.311,-0.307C0.401,-0.319 0.456,-0.375 0.456,-0.459C0.456,-0.591 0.359,-0.623 0.237,-0.623L0.063,-0.623L0.063,-0.045L0.149,-0.045L0.149,-0.304L0.219,-0.304L0.368,-0.045L0.46,-0.045Z" style="fill:white;fill-rule:nonzero;"/>
            </g>
            <g transform="matrix(125,0,0,125,1296.63,370.393)">
                <path d="M0.021,-0.114C0.073,-0.06 0.143,-0.03 0.208,-0.03C0.312,-0.03 0.399,-0.095 0.399,-0.203C0.399,-0.313 0.317,-0.342 0.239,-0.369C0.179,-0.39 0.122,-0.411 0.121,-0.473C0.122,-0.525 0.175,-0.553 0.215,-0.553C0.252,-0.553 0.295,-0.536 0.33,-0.502L0.393,-0.563C0.34,-0.613 0.276,-0.636 0.216,-0.636C0.121,-0.636 0.033,-0.572 0.033,-0.467C0.033,-0.346 0.122,-0.319 0.203,-0.291C0.258,-0.272 0.309,-0.252 0.309,-0.196C0.308,-0.139 0.259,-0.114 0.204,-0.113C0.165,-0.114 0.118,-0.138 0.084,-0.175L0.021,-0.114Z" style="fill:white;fill-rule:nonzero;"/>
            </g>
            <g transform="matrix(125,0,0,125,1349.88,370.393)">
                <path d="M0.431,-0.623L0.072,-0.623L0.072,-0.045L0.431,-0.045L0.431,-0.13L0.156,-0.13L0.156,-0.297L0.39,-0.297L0.39,-0.382L0.156,-0.382L0.156,-0.538L0.431,-0.538L0.431,-0.623Z" style="fill:white;fill-rule:nonzero;"/>
            </g>
            <g transform="matrix(125,0,0,125,1407.88,370.393)">
                <path d="M0.178,-0.543C0.198,-0.543 0.218,-0.544 0.237,-0.544C0.308,-0.544 0.362,-0.536 0.362,-0.459C0.362,-0.408 0.325,-0.381 0.271,-0.381L0.149,-0.381L0.149,-0.543L0.178,-0.543ZM0.46,-0.045L0.311,-0.307C0.401,-0.319 0.456,-0.375 0.456,-0.459C0.456,-0.591 0.359,-0.623 0.237,-0.623L0.063,-0.623L0.063,-0.045L0.149,-0.045L0.149,-0.304L0.219,-0.304L0.368,-0.045L0.46,-0.045Z" style="fill:white;fill-rule:nonzero;"/>
            </g>
            <g transform="matrix(125,0,0,125,1467.88,370.393)">
                <path d="M0.007,-0.623C0.036,-0.54 0.073,-0.435 0.102,-0.353C0.137,-0.254 0.177,-0.144 0.211,-0.045L0.285,-0.045C0.318,-0.131 0.355,-0.226 0.387,-0.311C0.424,-0.406 0.47,-0.525 0.506,-0.623L0.42,-0.623C0.399,-0.567 0.372,-0.498 0.349,-0.439C0.316,-0.353 0.281,-0.264 0.249,-0.179L0.095,-0.623L0.007,-0.623Z" style="fill:white;fill-rule:nonzero;"/>
            </g>
            <g transform="matrix(125,0,0,125,1532.26,370.393)">
                <path d="M0.159,-0.623L0.075,-0.623L0.075,-0.045L0.158,-0.045L0.159,-0.623Z" style="fill:white;fill-rule:nonzero;"/>
            </g>
            <g transform="matrix(125,0,0,125,1561.38,370.393)">
                <path d="M0.122,-0.332C0.122,-0.447 0.178,-0.551 0.292,-0.551C0.34,-0.551 0.388,-0.53 0.434,-0.487L0.487,-0.551C0.429,-0.607 0.359,-0.637 0.292,-0.637C0.131,-0.637 0.034,-0.494 0.034,-0.332C0.034,-0.163 0.137,-0.03 0.302,-0.03C0.368,-0.03 0.436,-0.065 0.491,-0.121L0.439,-0.184C0.398,-0.145 0.346,-0.116 0.302,-0.116C0.183,-0.116 0.122,-0.211 0.122,-0.332Z" style="fill:white;fill-rule:nonzero;"/>
            </g>
            <g transform="matrix(125,0,0,125,1625.76,370.393)">
                <path d="M0.431,-0.623L0.072,-0.623L0.072,-0.045L0.431,-0.045L0.431,-0.13L0.156,-0.13L0.156,-0.297L0.39,-0.297L0.39,-0.382L0.156,-0.382L0.156,-0.538L0.431,-0.538L0.431,-0.623Z" style="fill:white;fill-rule:nonzero;"/>
            </g>
            <g transform="matrix(125,0,0,125,1683.76,370.393)">
                <path d="M0.021,-0.114C0.073,-0.06 0.143,-0.03 0.208,-0.03C0.312,-0.03 0.399,-0.095 0.399,-0.203C0.399,-0.313 0.317,-0.342 0.239,-0.369C0.179,-0.39 0.122,-0.411 0.121,-0.473C0.122,-0.525 0.175,-0.553 0.215,-0.553C0.252,-0.553 0.295,-0.536 0.33,-0.502L0.393,-0.563C0.34,-0.613 0.276,-0.636 0.216,-0.636C0.121,-0.636 0.033,-0.572 0.033,-0.467C0.033,-0.346 0.122,-0.319 0.203,-0.291C0.258,-0.272 0.309,-0.252 0.309,-0.196C0.308,-0.139 0.259,-0.114 0.204,-0.113C0.165,-0.114 0.118,-0.138 0.084,-0.175L0.021,-0.114Z" style="fill:white;fill-rule:nonzero;"/>
            </g>
        </g>
    </g>
</svg>
