<?xml version="1.0" encoding="UTF-8" standalone="no"?>
<!DOCTYPE svg PUBLIC "-//W3C//DTD SVG 1.1//EN" "http://www.w3.org/Graphics/SVG/1.1/DTD/svg11.dtd">
<svg width="100%" height="100%" viewBox="0 0 826 248" version="1.1" xmlns="http://www.w3.org/2000/svg" xmlns:xlink="http://www.w3.org/1999/xlink" xml:space="preserve" style="fill-rule:evenodd;clip-rule:evenodd;stroke-linejoin:round;stroke-miterlimit:2;">
    <g transform="matrix(1,0,0,1,-937.124,-268.286)">
        <g transform="matrix(0.773871,0,0,0.773871,-0.794139,-143.562)">
            <g transform="matrix(0.730788,0,0,0.803867,920.898,76.8832)">
                <g transform="matrix(150,0,0,150,682.857,961.398)">
                    <path d="M0.213,-0.315L0.213,-0.111C0.213,-0.092 0.215,-0.078 0.219,-0.067C0.222,-0.056 0.229,-0.049 0.24,-0.043C0.251,-0.039 0.26,-0.035 0.269,-0.034C0.278,-0.033 0.292,-0.032 0.313,-0.031L0.313,-0L0.013,-0L0.013,-0.031C0.034,-0.032 0.049,-0.033 0.058,-0.034C0.067,-0.035 0.076,-0.039 0.086,-0.043C0.097,-0.049 0.104,-0.056 0.108,-0.067C0.111,-0.078 0.113,-0.092 0.113,-0.111L0.113,-0.556C0.113,-0.574 0.111,-0.589 0.108,-0.6C0.104,-0.611 0.097,-0.619 0.086,-0.624C0.076,-0.628 0.066,-0.632 0.057,-0.633C0.048,-0.634 0.033,-0.635 0.013,-0.636L0.013,-0.667L0.297,-0.667C0.38,-0.667 0.44,-0.652 0.479,-0.623C0.522,-0.59 0.543,-0.549 0.543,-0.499C0.543,-0.45 0.525,-0.409 0.488,-0.378C0.451,-0.347 0.406,-0.33 0.355,-0.329C0.368,-0.327 0.38,-0.324 0.391,-0.32C0.402,-0.316 0.411,-0.312 0.419,-0.309C0.427,-0.305 0.436,-0.299 0.446,-0.291C0.455,-0.283 0.462,-0.277 0.467,-0.273C0.472,-0.268 0.479,-0.26 0.488,-0.248C0.497,-0.236 0.503,-0.228 0.506,-0.224L0.544,-0.168C0.548,-0.162 0.556,-0.15 0.567,-0.133C0.578,-0.115 0.586,-0.102 0.593,-0.094C0.6,-0.085 0.609,-0.075 0.62,-0.064C0.63,-0.052 0.643,-0.043 0.656,-0.039C0.669,-0.034 0.683,-0.031 0.698,-0.031L0.698,-0L0.546,-0C0.517,-0.024 0.483,-0.071 0.442,-0.141C0.401,-0.211 0.37,-0.258 0.349,-0.282C0.329,-0.304 0.302,-0.315 0.269,-0.315L0.213,-0.315ZM0.213,-0.348L0.3,-0.348C0.347,-0.348 0.381,-0.36 0.402,-0.385C0.423,-0.41 0.434,-0.446 0.434,-0.495C0.434,-0.589 0.384,-0.636 0.285,-0.636L0.213,-0.636L0.213,-0.348Z" style="fill:white;fill-rule:nonzero;"/>
                </g>
                <g transform="matrix(150,0,0,150,786.357,961.398)">
                    <path d="M0.314,-0L0.014,-0L0.014,-0.031C0.035,-0.032 0.05,-0.033 0.059,-0.034C0.068,-0.035 0.077,-0.039 0.087,-0.043C0.098,-0.049 0.105,-0.056 0.109,-0.067C0.112,-0.078 0.114,-0.092 0.114,-0.111L0.114,-0.556C0.114,-0.574 0.112,-0.589 0.109,-0.6C0.105,-0.611 0.098,-0.619 0.087,-0.624C0.077,-0.628 0.067,-0.632 0.058,-0.633C0.049,-0.634 0.034,-0.635 0.014,-0.636L0.014,-0.667L0.314,-0.667L0.314,-0.636C0.278,-0.635 0.252,-0.63 0.237,-0.622C0.222,-0.614 0.214,-0.592 0.214,-0.556L0.214,-0.111C0.214,-0.092 0.216,-0.078 0.22,-0.067C0.223,-0.056 0.23,-0.049 0.241,-0.043C0.252,-0.039 0.261,-0.035 0.27,-0.034C0.279,-0.033 0.293,-0.032 0.314,-0.031L0.314,-0Z" style="fill:white;fill-rule:nonzero;"/>
                </g>
                <g transform="matrix(150,0,0,150,837.657,961.398)">
                    <path d="M0.434,-0.674L0.434,-0.493L0.404,-0.493C0.396,-0.54 0.378,-0.578 0.35,-0.608C0.323,-0.638 0.286,-0.653 0.241,-0.653C0.212,-0.653 0.186,-0.644 0.164,-0.627C0.141,-0.61 0.13,-0.587 0.13,-0.559C0.13,-0.53 0.142,-0.504 0.166,-0.482C0.189,-0.46 0.218,-0.441 0.252,-0.426C0.286,-0.41 0.32,-0.393 0.354,-0.375C0.388,-0.357 0.417,-0.333 0.441,-0.302C0.464,-0.271 0.476,-0.234 0.476,-0.191C0.476,-0.132 0.458,-0.082 0.421,-0.043C0.384,-0.003 0.335,0.017 0.276,0.017C0.21,0.017 0.149,-0.007 0.093,-0.056C0.083,-0.035 0.076,-0.017 0.071,-0L0.04,-0L0.04,-0.21L0.071,-0.21C0.078,-0.161 0.098,-0.118 0.133,-0.081C0.168,-0.044 0.209,-0.025 0.256,-0.025C0.297,-0.025 0.331,-0.035 0.36,-0.057C0.388,-0.078 0.402,-0.108 0.402,-0.147C0.402,-0.18 0.39,-0.209 0.366,-0.234C0.342,-0.258 0.313,-0.278 0.279,-0.294C0.245,-0.309 0.211,-0.326 0.177,-0.343C0.142,-0.36 0.113,-0.382 0.089,-0.411C0.065,-0.44 0.053,-0.474 0.053,-0.513C0.053,-0.564 0.071,-0.605 0.108,-0.636C0.144,-0.667 0.188,-0.683 0.239,-0.683C0.3,-0.683 0.35,-0.667 0.388,-0.634C0.392,-0.639 0.399,-0.653 0.41,-0.674L0.434,-0.674Z" style="fill:white;fill-rule:nonzero;"/>
                </g>
                <g transform="matrix(150,0,0,150,916.257,961.398)">
                    <path d="M0.506,-0.667L0.524,-0.504L0.493,-0.504C0.483,-0.545 0.468,-0.577 0.448,-0.6C0.427,-0.622 0.398,-0.633 0.359,-0.633L0.214,-0.633L0.214,-0.371L0.277,-0.371C0.308,-0.371 0.331,-0.379 0.345,-0.394C0.361,-0.409 0.369,-0.433 0.37,-0.464L0.401,-0.464L0.401,-0.238L0.37,-0.238C0.367,-0.257 0.365,-0.271 0.362,-0.281C0.359,-0.291 0.355,-0.301 0.348,-0.311C0.342,-0.32 0.333,-0.327 0.322,-0.331C0.311,-0.334 0.296,-0.336 0.277,-0.336L0.214,-0.336L0.214,-0.122C0.214,-0.089 0.223,-0.066 0.241,-0.053C0.258,-0.04 0.284,-0.034 0.319,-0.034C0.344,-0.034 0.365,-0.035 0.38,-0.036C0.395,-0.037 0.411,-0.041 0.43,-0.046C0.448,-0.051 0.464,-0.059 0.477,-0.07C0.491,-0.082 0.504,-0.097 0.515,-0.116C0.534,-0.15 0.545,-0.18 0.546,-0.206L0.575,-0.206L0.562,-0L0.014,-0L0.014,-0.031C0.035,-0.032 0.05,-0.033 0.059,-0.034C0.068,-0.035 0.077,-0.039 0.087,-0.043C0.098,-0.049 0.105,-0.056 0.109,-0.067C0.112,-0.078 0.114,-0.092 0.114,-0.111L0.114,-0.556C0.114,-0.574 0.112,-0.589 0.109,-0.6C0.105,-0.611 0.098,-0.619 0.087,-0.624C0.077,-0.628 0.067,-0.632 0.058,-0.633C0.049,-0.634 0.034,-0.635 0.014,-0.636L0.014,-0.667L0.506,-0.667Z" style="fill:white;fill-rule:nonzero;"/>
                </g>
                <g transform="matrix(150,0,0,150,1050.06,961.398)">
                    <path d="M0.382,-0.678L0.634,-0.097C0.644,-0.074 0.656,-0.058 0.67,-0.048C0.684,-0.037 0.703,-0.032 0.727,-0.031L0.727,-0L0.452,-0L0.452,-0.031L0.474,-0.031C0.513,-0.031 0.532,-0.041 0.532,-0.062C0.532,-0.072 0.529,-0.084 0.523,-0.097L0.469,-0.226L0.203,-0.226L0.151,-0.097C0.146,-0.086 0.144,-0.077 0.144,-0.07C0.144,-0.044 0.165,-0.031 0.206,-0.031L0.227,-0.031L0.227,-0L-0.003,-0L-0.003,-0.031C0.027,-0.032 0.05,-0.037 0.066,-0.046C0.081,-0.055 0.094,-0.072 0.105,-0.097L0.345,-0.678L0.382,-0.678ZM0.45,-0.268L0.363,-0.48C0.348,-0.519 0.339,-0.545 0.335,-0.56C0.334,-0.558 0.333,-0.554 0.332,-0.549C0.33,-0.543 0.328,-0.538 0.327,-0.535L0.219,-0.268L0.45,-0.268Z" style="fill:white;fill-rule:nonzero;"/>
                </g>
                <g transform="matrix(150,0,0,150,1160.76,961.398)">
                    <path d="M0.337,-0.361C0.396,-0.359 0.446,-0.343 0.488,-0.312C0.53,-0.281 0.551,-0.238 0.551,-0.182C0.551,-0.127 0.532,-0.083 0.495,-0.05C0.457,-0.017 0.41,-0 0.354,-0L0.014,-0L0.014,-0.031C0.035,-0.032 0.05,-0.033 0.059,-0.034C0.068,-0.035 0.077,-0.039 0.087,-0.043C0.098,-0.049 0.105,-0.056 0.109,-0.067C0.112,-0.078 0.114,-0.092 0.114,-0.111L0.114,-0.556C0.114,-0.574 0.112,-0.589 0.109,-0.6C0.105,-0.611 0.098,-0.619 0.087,-0.624C0.077,-0.628 0.067,-0.632 0.058,-0.633C0.049,-0.634 0.034,-0.635 0.014,-0.636L0.014,-0.667L0.337,-0.667C0.386,-0.667 0.428,-0.654 0.463,-0.629C0.498,-0.604 0.515,-0.567 0.515,-0.52C0.515,-0.431 0.456,-0.378 0.337,-0.361ZM0.214,-0.341L0.214,-0.111C0.214,-0.082 0.222,-0.062 0.238,-0.051C0.255,-0.041 0.279,-0.036 0.311,-0.036C0.356,-0.036 0.388,-0.051 0.408,-0.08C0.428,-0.109 0.438,-0.148 0.438,-0.195C0.438,-0.213 0.437,-0.229 0.434,-0.244C0.431,-0.258 0.426,-0.27 0.419,-0.28C0.411,-0.289 0.405,-0.298 0.398,-0.305C0.391,-0.312 0.382,-0.318 0.369,-0.323C0.356,-0.327 0.344,-0.33 0.336,-0.333C0.327,-0.336 0.314,-0.338 0.297,-0.339C0.28,-0.34 0.267,-0.34 0.258,-0.341C0.248,-0.341 0.233,-0.341 0.214,-0.341ZM0.214,-0.373C0.239,-0.373 0.26,-0.374 0.275,-0.375C0.29,-0.376 0.307,-0.378 0.326,-0.383C0.344,-0.388 0.359,-0.394 0.369,-0.403C0.379,-0.412 0.388,-0.425 0.395,-0.442C0.402,-0.459 0.406,-0.479 0.406,-0.504C0.406,-0.547 0.398,-0.58 0.381,-0.602C0.364,-0.623 0.335,-0.634 0.294,-0.634L0.214,-0.634L0.214,-0.373Z" style="fill:white;fill-rule:nonzero;"/>
                </g>
                <g transform="matrix(150,0,0,150,1252.41,961.398)">
                    <path d="M0.654,-0.082C0.586,-0.016 0.501,0.017 0.4,0.017C0.299,0.017 0.214,-0.016 0.147,-0.082C0.08,-0.148 0.046,-0.232 0.046,-0.333C0.046,-0.436 0.08,-0.52 0.147,-0.585C0.214,-0.65 0.298,-0.683 0.4,-0.683C0.503,-0.683 0.588,-0.65 0.655,-0.585C0.722,-0.52 0.755,-0.436 0.755,-0.333C0.755,-0.232 0.721,-0.148 0.654,-0.082ZM0.286,-0.045C0.318,-0.027 0.356,-0.018 0.4,-0.018C0.444,-0.018 0.482,-0.027 0.514,-0.045C0.546,-0.063 0.571,-0.087 0.589,-0.118C0.606,-0.15 0.619,-0.183 0.627,-0.219C0.635,-0.254 0.639,-0.293 0.639,-0.334C0.639,-0.375 0.635,-0.414 0.627,-0.45C0.619,-0.485 0.606,-0.519 0.589,-0.55C0.571,-0.581 0.546,-0.606 0.514,-0.624C0.482,-0.642 0.444,-0.651 0.4,-0.651C0.365,-0.651 0.333,-0.645 0.306,-0.632C0.278,-0.62 0.255,-0.604 0.237,-0.584C0.219,-0.564 0.204,-0.54 0.193,-0.513C0.181,-0.485 0.173,-0.456 0.168,-0.427C0.163,-0.398 0.161,-0.367 0.161,-0.334C0.161,-0.293 0.165,-0.254 0.173,-0.219C0.181,-0.183 0.194,-0.15 0.212,-0.118C0.229,-0.087 0.254,-0.063 0.286,-0.045Z" style="fill:white;fill-rule:nonzero;"/>
                </g>
                <g transform="matrix(150,0,0,150,1374.96,961.398)">
                    <path d="M0.378,0.011L0.342,0.011L0.089,-0.569C0.07,-0.614 0.039,-0.636 -0.004,-0.636L-0.004,-0.667L0.271,-0.667L0.271,-0.636L0.249,-0.636C0.21,-0.636 0.191,-0.626 0.191,-0.605C0.191,-0.596 0.194,-0.584 0.2,-0.569L0.36,-0.187C0.373,-0.156 0.382,-0.13 0.388,-0.109L0.396,-0.132L0.572,-0.569C0.577,-0.58 0.579,-0.591 0.579,-0.6C0.579,-0.624 0.558,-0.636 0.516,-0.636L0.496,-0.636L0.496,-0.667L0.726,-0.667L0.726,-0.636L0.717,-0.635C0.688,-0.632 0.667,-0.627 0.654,-0.619C0.64,-0.61 0.628,-0.594 0.618,-0.569L0.378,0.011Z" style="fill:white;fill-rule:nonzero;"/>
                </g>
                <g transform="matrix(150,0,0,150,1485.66,961.398)">
                    <path d="M0.506,-0.667L0.524,-0.504L0.493,-0.504C0.483,-0.545 0.468,-0.577 0.448,-0.6C0.427,-0.622 0.398,-0.633 0.359,-0.633L0.214,-0.633L0.214,-0.371L0.277,-0.371C0.308,-0.371 0.331,-0.379 0.345,-0.394C0.361,-0.409 0.369,-0.433 0.37,-0.464L0.401,-0.464L0.401,-0.238L0.37,-0.238C0.367,-0.257 0.365,-0.271 0.362,-0.281C0.359,-0.291 0.355,-0.301 0.348,-0.311C0.342,-0.32 0.333,-0.327 0.322,-0.331C0.311,-0.334 0.296,-0.336 0.277,-0.336L0.214,-0.336L0.214,-0.122C0.214,-0.089 0.223,-0.066 0.241,-0.053C0.258,-0.04 0.284,-0.034 0.319,-0.034C0.344,-0.034 0.365,-0.035 0.38,-0.036C0.395,-0.037 0.411,-0.041 0.43,-0.046C0.448,-0.051 0.464,-0.059 0.477,-0.07C0.491,-0.082 0.504,-0.097 0.515,-0.116C0.534,-0.15 0.545,-0.18 0.546,-0.206L0.575,-0.206L0.562,-0L0.014,-0L0.014,-0.031C0.035,-0.032 0.05,-0.033 0.059,-0.034C0.068,-0.035 0.077,-0.039 0.087,-0.043C0.098,-0.049 0.105,-0.056 0.109,-0.067C0.112,-0.078 0.114,-0.092 0.114,-0.111L0.114,-0.556C0.114,-0.574 0.112,-0.589 0.109,-0.6C0.105,-0.611 0.098,-0.619 0.087,-0.624C0.077,-0.628 0.067,-0.632 0.058,-0.633C0.049,-0.634 0.034,-0.635 0.014,-0.636L0.014,-0.667L0.506,-0.667Z" style="fill:white;fill-rule:nonzero;"/>
                </g>
            </g>
        </g>
        <g transform="matrix(0.773871,0,0,0.773871,-0.794139,-143.562)">
            <g transform="matrix(2.30722,0,0,2.88403,149.626,-670.037)">
                <path d="M536.503,418.923L519.075,464.794L502.299,418.921L492.374,418.921L498.942,436.881L488.337,464.792L471.563,418.921L461.638,418.921L482.731,476.604L484.457,476.604L499.24,437.697L513.469,476.608L515.195,476.608L537.111,418.923L536.503,418.923Z" style="fill:white;fill-rule:nonzero;stroke:white;stroke-width:2.1px;"/>
                <rect x="545.899" y="418.921" width="9.333" height="57.684" style="fill:white;fill-rule:nonzero;stroke:white;stroke-width:2.1px;"/>
                <path d="M577.496,476.036L577.496,418.921L568.161,418.921L568.164,476.605L577.495,476.605C586.819,476.605 599.879,476.602 600.721,476.602L600.721,476.033C600.514,476.033 587.046,476.036 577.496,476.036L577.496,476.036Z" style="fill:white;fill-rule:nonzero;stroke:white;stroke-width:2.1px;"/>
                <path d="M628.061,418.923C627.959,418.923 622.565,418.924 617.404,418.924L617.404,418.921L608.069,418.921L608.069,419.197L608.066,419.49L608.069,419.49L608.069,476.312L608.066,476.604L628.061,476.604C644.022,476.604 657.007,464.291 657.007,447.771C657.007,431.249 644.024,418.923 628.061,418.923L628.061,418.923ZM626.656,476.037C624.703,476.037 620.997,476.037 617.404,476.037L617.404,419.493C620.995,419.493 624.694,419.491 626.656,419.491C642.304,419.491 647.69,431.565 647.69,447.771C647.69,463.977 642.304,476.037 626.656,476.037L626.656,476.037Z" style="fill:white;fill-rule:nonzero;stroke:white;stroke-width:2.1px;"/>
                <path d="M734.599,418.923L717.171,464.794L700.396,418.921L690.471,418.921L697.038,436.881L686.434,464.792L669.66,418.921L659.735,418.921L680.828,476.604L682.554,476.604L697.337,437.697L711.565,476.608L713.291,476.608L735.208,418.923L734.599,418.923Z" style="fill:white;fill-rule:nonzero;stroke:white;stroke-width:2.1px;"/>
                <path d="M767.443,417.81C751.482,417.81 738.497,431.249 738.497,447.769C738.497,464.291 751.482,477.73 767.443,477.73C783.404,477.73 796.391,464.291 796.391,447.769C796.391,431.249 783.406,417.81 767.443,417.81ZM767.443,477.162C756.627,477.162 747.828,463.977 747.828,447.769C747.828,431.564 756.627,418.379 767.443,418.379C778.259,418.379 787.06,431.564 787.06,447.769C787.06,463.977 778.259,477.162 767.443,477.162Z" style="fill:white;fill-rule:nonzero;stroke:white;stroke-width:2.1px;"/>
                <path d="M833.391,417.81C817.43,417.81 804.445,431.249 804.445,447.769C804.445,464.291 817.43,477.73 833.391,477.73C849.353,477.73 862.339,464.291 862.339,447.769C862.339,431.249 849.354,417.81 833.391,417.81ZM833.391,477.162C822.575,477.162 813.776,463.977 813.776,447.769C813.776,431.564 822.575,418.379 833.391,418.379C844.208,418.379 853.008,431.564 853.008,447.769C853.008,463.977 844.208,477.162 833.391,477.162Z" style="fill:white;fill-rule:nonzero;stroke:white;stroke-width:2.1px;"/>
                <path d="M892.778,418.923C892.676,418.923 887.282,418.924 882.121,418.924L882.121,418.921L872.786,418.921L872.786,419.197L872.783,419.49L872.786,419.49L872.786,476.312L872.783,476.604L892.778,476.604C908.739,476.604 921.724,464.291 921.724,447.771C921.724,431.249 908.741,418.923 892.778,418.923L892.778,418.923ZM891.373,476.037C889.419,476.037 885.714,476.037 882.121,476.037L882.121,419.493C885.712,419.493 889.411,419.491 891.373,419.491C907.021,419.491 912.406,431.565 912.406,447.771C912.406,463.977 907.021,476.037 891.373,476.037L891.373,476.037Z" style="fill:white;fill-rule:nonzero;stroke:white;stroke-width:2.1px;"/>
            </g>
        </g>
    </g>
</svg>
