<?xml version="1.0" encoding="UTF-8" standalone="no"?>
<!DOCTYPE svg PUBLIC "-//W3C//DTD SVG 1.1//EN" "http://www.w3.org/Graphics/SVG/1.1/DTD/svg11.dtd">
<svg width="100%" height="100%" viewBox="0 0 1031 330" version="1.1" xmlns="http://www.w3.org/2000/svg" xmlns:xlink="http://www.w3.org/1999/xlink" xml:space="preserve" xmlns:serif="http://www.serif.com/" style="fill-rule:evenodd;clip-rule:evenodd;stroke-linejoin:round;stroke-miterlimit:2;">
    <g transform="matrix(1,0,0,1,-574.493,-43.8101)">
        <g transform="matrix(6.27509,0,0,6.27509,-2557.4,-2349.16)">
            <g transform="matrix(50,0,0,50,502.824,415.933)">
                <path d="M0.058,0.059C0.078,0.059 0.102,0.05 0.152,0.048C0.176,0.048 0.193,0.043 0.217,0.012C0.351,-0.163 0.556,-0.466 0.622,-0.572C0.712,-0.586 0.787,-0.597 0.824,-0.602C0.832,-0.603 0.836,-0.606 0.836,-0.61C0.836,-0.617 0.827,-0.623 0.803,-0.639C0.783,-0.652 0.766,-0.661 0.739,-0.661C0.706,-0.661 0.662,-0.659 0.614,-0.656C0.596,-0.668 0.578,-0.679 0.565,-0.686C0.547,-0.695 0.542,-0.694 0.532,-0.679C0.527,-0.671 0.521,-0.661 0.512,-0.648C0.435,-0.641 0.362,-0.633 0.327,-0.627C0.282,-0.62 0.267,-0.607 0.25,-0.586C0.239,-0.572 0.232,-0.548 0.219,-0.519C0.215,-0.511 0.218,-0.507 0.235,-0.51C0.299,-0.521 0.371,-0.533 0.442,-0.544C0.28,-0.307 0.132,-0.086 0.052,0.047C0.046,0.057 0.052,0.059 0.058,0.059Z" style="fill:rgb(212,200,184);fill-rule:nonzero;"/>
            </g>
            <g transform="matrix(50,0,0,50,526.824,415.933)">
                <path d="M0.32,0.029C0.38,0.029 0.483,-0.057 0.553,-0.173L0.556,-0.178C0.56,-0.185 0.561,-0.19 0.554,-0.197L0.551,-0.2C0.548,-0.203 0.546,-0.202 0.539,-0.193L0.536,-0.189C0.462,-0.09 0.408,-0.048 0.36,-0.035C0.367,-0.083 0.443,-0.184 0.466,-0.238C0.481,-0.272 0.48,-0.29 0.456,-0.311C0.441,-0.325 0.426,-0.331 0.411,-0.331C0.384,-0.331 0.319,-0.293 0.248,-0.242C0.322,-0.366 0.373,-0.443 0.415,-0.501C0.477,-0.587 0.48,-0.639 0.457,-0.654C0.445,-0.662 0.42,-0.672 0.395,-0.679C0.386,-0.682 0.382,-0.682 0.372,-0.668C0.284,-0.531 0.16,-0.347 0.057,-0.189C0.007,-0.112 -0.015,-0.074 -0.015,-0.047C-0.015,-0.026 -0.003,-0.012 0.029,0.002C0.054,0.013 0.073,0.018 0.084,0.018C0.099,0.018 0.107,0.007 0.138,-0.049C0.148,-0.068 0.159,-0.086 0.169,-0.104C0.234,-0.173 0.298,-0.228 0.342,-0.258C0.314,-0.205 0.263,-0.145 0.238,-0.091C0.223,-0.056 0.231,-0.026 0.256,-0.001C0.278,0.02 0.294,0.029 0.32,0.029Z" style="fill:rgb(212,200,184);fill-rule:nonzero;"/>
            </g>
            <g transform="matrix(50,0,0,50,550.774,415.933)">
                <path d="M0.147,0.034C0.223,0.034 0.304,-0.001 0.361,-0.063C0.37,-0.072 0.374,-0.09 0.374,-0.1C0.374,-0.106 0.373,-0.11 0.369,-0.11C0.367,-0.11 0.365,-0.109 0.361,-0.106C0.29,-0.048 0.23,-0.032 0.173,-0.032C0.162,-0.032 0.152,-0.033 0.143,-0.036C0.136,-0.046 0.136,-0.062 0.14,-0.081C0.211,-0.105 0.265,-0.129 0.3,-0.151C0.367,-0.194 0.385,-0.223 0.385,-0.253C0.385,-0.274 0.37,-0.297 0.351,-0.312C0.342,-0.325 0.334,-0.33 0.319,-0.34C0.304,-0.35 0.288,-0.357 0.268,-0.357C0.203,-0.357 0.112,-0.3 0.06,-0.232C-0.013,-0.136 0,-0.072 0.035,-0.031C0.078,0.02 0.109,0.034 0.147,0.034ZM0.272,-0.19C0.245,-0.17 0.204,-0.149 0.159,-0.13C0.194,-0.199 0.268,-0.273 0.323,-0.285C0.333,-0.25 0.309,-0.217 0.272,-0.19Z" style="fill:rgb(212,200,184);fill-rule:nonzero;"/>
            </g>
            <g transform="matrix(50,0,0,50,577.774,415.933)">
                <path d="M0.224,0.049C0.338,0.049 0.479,-0.066 0.531,-0.142C0.548,-0.167 0.555,-0.188 0.534,-0.193C0.515,-0.198 0.498,-0.203 0.484,-0.209C0.518,-0.217 0.554,-0.229 0.577,-0.239C0.606,-0.251 0.615,-0.262 0.637,-0.287C0.648,-0.3 0.657,-0.315 0.657,-0.321C0.657,-0.325 0.655,-0.327 0.652,-0.327C0.644,-0.327 0.53,-0.295 0.412,-0.295C0.381,-0.295 0.369,-0.301 0.361,-0.301C0.354,-0.301 0.353,-0.292 0.358,-0.272C0.363,-0.25 0.372,-0.225 0.38,-0.211C0.388,-0.198 0.399,-0.195 0.426,-0.198C0.33,-0.087 0.238,-0.028 0.158,-0.034C0.155,-0.043 0.154,-0.054 0.154,-0.065C0.154,-0.221 0.419,-0.469 0.731,-0.597C0.743,-0.602 0.749,-0.625 0.706,-0.66C0.685,-0.678 0.666,-0.69 0.64,-0.69C0.572,-0.69 0.383,-0.587 0.243,-0.464C0.133,-0.366 0.047,-0.247 0.047,-0.129C0.047,-0.07 0.07,-0.018 0.118,0.007C0.146,0.033 0.18,0.049 0.224,0.049Z" style="fill:rgb(212,200,184);fill-rule:nonzero;"/>
            </g>
            <g transform="matrix(50,0,0,50,606.274,415.933)">
                <path d="M0.253,-0.432C0.258,-0.427 0.278,-0.423 0.288,-0.423C0.309,-0.423 0.324,-0.425 0.341,-0.436C0.35,-0.442 0.368,-0.459 0.391,-0.483C0.403,-0.497 0.404,-0.508 0.397,-0.52C0.388,-0.536 0.367,-0.552 0.342,-0.562C0.337,-0.564 0.335,-0.563 0.332,-0.558C0.314,-0.529 0.28,-0.479 0.255,-0.449C0.249,-0.442 0.249,-0.436 0.253,-0.432ZM0.1,0.032C0.154,0.032 0.21,-0.033 0.236,-0.071C0.243,-0.08 0.244,-0.086 0.244,-0.09C0.244,-0.094 0.243,-0.102 0.242,-0.105C0.241,-0.107 0.238,-0.107 0.236,-0.105C0.2,-0.067 0.159,-0.038 0.121,-0.032C0.131,-0.089 0.207,-0.19 0.255,-0.253C0.289,-0.299 0.285,-0.329 0.26,-0.342C0.247,-0.349 0.217,-0.355 0.19,-0.365C0.177,-0.369 0.174,-0.366 0.162,-0.344C0.148,-0.317 0.112,-0.262 0.057,-0.189C-0.002,-0.111 -0.017,-0.066 0.003,-0.028C0.009,-0.015 0.022,-0.002 0.039,0.011C0.056,0.023 0.078,0.032 0.1,0.032Z" style="fill:rgb(212,200,184);fill-rule:nonzero;"/>
            </g>
            <g transform="matrix(50,0,0,50,620.524,415.933)">
                <path d="M0.022,0.143C0.042,0.094 0.083,0.003 0.284,-0.309C0.322,-0.311 0.363,-0.314 0.405,-0.316C0.37,-0.267 0.337,-0.221 0.317,-0.189C0.273,-0.12 0.258,-0.082 0.274,-0.047C0.287,-0.02 0.307,-0 0.331,0.013C0.342,0.019 0.363,0.025 0.375,0.025C0.444,0.025 0.517,-0.021 0.557,-0.053C0.579,-0.071 0.587,-0.082 0.593,-0.09C0.601,-0.101 0.607,-0.117 0.612,-0.131C0.614,-0.136 0.61,-0.139 0.606,-0.136C0.502,-0.062 0.445,-0.048 0.415,-0.048L0.409,-0.048C0.414,-0.12 0.496,-0.224 0.565,-0.328C0.606,-0.332 0.645,-0.336 0.673,-0.34C0.707,-0.345 0.712,-0.347 0.72,-0.355C0.725,-0.36 0.728,-0.368 0.732,-0.379C0.734,-0.386 0.73,-0.388 0.714,-0.388C0.685,-0.388 0.646,-0.387 0.602,-0.385C0.616,-0.406 0.63,-0.427 0.64,-0.444C0.663,-0.484 0.662,-0.508 0.643,-0.524C0.614,-0.547 0.592,-0.557 0.578,-0.558C0.568,-0.559 0.566,-0.556 0.549,-0.527C0.527,-0.49 0.488,-0.435 0.448,-0.378L0.325,-0.372C0.353,-0.415 0.375,-0.449 0.401,-0.473C0.403,-0.472 0.406,-0.471 0.409,-0.471C0.42,-0.471 0.427,-0.472 0.439,-0.472C0.452,-0.472 0.464,-0.478 0.475,-0.493C0.506,-0.545 0.534,-0.608 0.534,-0.63C0.534,-0.65 0.523,-0.661 0.508,-0.669C0.498,-0.675 0.482,-0.68 0.469,-0.68C0.453,-0.68 0.428,-0.673 0.372,-0.611C0.303,-0.535 0.24,-0.456 0.174,-0.362C0.143,-0.36 0.116,-0.357 0.095,-0.355C0.087,-0.354 0.082,-0.35 0.084,-0.338C0.085,-0.331 0.09,-0.317 0.094,-0.31C0.099,-0.302 0.107,-0.298 0.13,-0.299C0.107,-0.264 0.082,-0.228 0.057,-0.189C-0.009,-0.087 -0.081,0.038 -0.081,0.087C-0.081,0.113 -0.061,0.124 -0.037,0.142C-0.018,0.156 -0.012,0.169 0,0.169C0.008,0.169 0.015,0.161 0.022,0.143Z" style="fill:rgb(212,200,184);fill-rule:nonzero;"/>
            </g>
        </g>
        <g transform="matrix(0.576319,0,0,0.576319,378.468,161.846)">
            <g transform="matrix(125,0,0,125,338.757,370.393)">
                <path d="M0.232,-0.045C0.279,-0.194 0.324,-0.344 0.369,-0.494L0.492,-0.045L0.567,-0.045L0.723,-0.623L0.641,-0.623L0.528,-0.196L0.416,-0.623L0.325,-0.623C0.307,-0.561 0.285,-0.486 0.266,-0.421C0.245,-0.347 0.223,-0.273 0.201,-0.195L0.092,-0.623L0.011,-0.623L0.158,-0.045L0.232,-0.045Z" style="fill:rgb(212,200,184);fill-rule:nonzero;"/>
            </g>
            <g transform="matrix(125,0,0,125,430.257,370.393)">
                <path d="M0.159,-0.623L0.075,-0.623L0.075,-0.045L0.158,-0.045L0.159,-0.623Z" style="fill:rgb(212,200,184);fill-rule:nonzero;"/>
            </g>
            <g transform="matrix(125,0,0,125,459.382,370.393)">
                <path d="M0.07,-0.622L0.07,-0.045L0.392,-0.045L0.392,-0.13L0.154,-0.13L0.154,-0.622L0.07,-0.622Z" style="fill:rgb(212,200,184);fill-rule:nonzero;"/>
            </g>
            <g transform="matrix(125,0,0,125,511.507,370.393)">
                <path d="M0.266,-0.54C0.376,-0.54 0.444,-0.444 0.444,-0.332C0.444,-0.224 0.376,-0.126 0.269,-0.126L0.149,-0.126L0.149,-0.54L0.266,-0.54ZM0.274,-0.045C0.426,-0.045 0.523,-0.181 0.523,-0.334C0.523,-0.488 0.423,-0.622 0.269,-0.622L0.22,-0.622C0.203,-0.622 0.186,-0.623 0.17,-0.623L0.065,-0.623L0.065,-0.045L0.274,-0.045Z" style="fill:rgb(212,200,184);fill-rule:nonzero;"/>
            </g>
            <g transform="matrix(125,0,0,125,580.507,370.393)">
                <path d="M0.232,-0.045C0.279,-0.194 0.324,-0.344 0.369,-0.494L0.492,-0.045L0.567,-0.045L0.723,-0.623L0.641,-0.623L0.528,-0.196L0.416,-0.623L0.325,-0.623C0.307,-0.561 0.285,-0.486 0.266,-0.421C0.245,-0.347 0.223,-0.273 0.201,-0.195L0.092,-0.623L0.011,-0.623L0.158,-0.045L0.232,-0.045Z" style="fill:rgb(212,200,184);fill-rule:nonzero;"/>
            </g>
            <g transform="matrix(125,0,0,125,672.007,370.393)">
                <path d="M0.302,-0.637C0.145,-0.637 0.033,-0.49 0.033,-0.333C0.033,-0.177 0.145,-0.03 0.302,-0.03C0.46,-0.03 0.571,-0.177 0.571,-0.333C0.571,-0.49 0.46,-0.637 0.302,-0.637ZM0.302,-0.551C0.414,-0.551 0.49,-0.445 0.49,-0.333C0.49,-0.222 0.414,-0.116 0.302,-0.116C0.19,-0.116 0.114,-0.222 0.114,-0.333C0.114,-0.445 0.19,-0.551 0.302,-0.551Z" style="fill:rgb(212,200,184);fill-rule:nonzero;"/>
            </g>
            <g transform="matrix(125,0,0,125,747.882,370.393)">
                <path d="M0.302,-0.637C0.145,-0.637 0.033,-0.49 0.033,-0.333C0.033,-0.177 0.145,-0.03 0.302,-0.03C0.46,-0.03 0.571,-0.177 0.571,-0.333C0.571,-0.49 0.46,-0.637 0.302,-0.637ZM0.302,-0.551C0.414,-0.551 0.49,-0.445 0.49,-0.333C0.49,-0.222 0.414,-0.116 0.302,-0.116C0.19,-0.116 0.114,-0.222 0.114,-0.333C0.114,-0.445 0.19,-0.551 0.302,-0.551Z" style="fill:rgb(212,200,184);fill-rule:nonzero;"/>
            </g>
            <g transform="matrix(125,0,0,125,823.757,370.393)">
                <path d="M0.266,-0.54C0.376,-0.54 0.444,-0.444 0.444,-0.332C0.444,-0.224 0.376,-0.126 0.269,-0.126L0.149,-0.126L0.149,-0.54L0.266,-0.54ZM0.274,-0.045C0.426,-0.045 0.523,-0.181 0.523,-0.334C0.523,-0.488 0.423,-0.622 0.269,-0.622L0.22,-0.622C0.203,-0.622 0.186,-0.623 0.17,-0.623L0.065,-0.623L0.065,-0.045L0.274,-0.045Z" style="fill:rgb(212,200,184);fill-rule:nonzero;"/>
            </g>
            <g transform="matrix(125,0,0,125,920.257,370.393)">
                <path d="M0.122,-0.332C0.122,-0.447 0.178,-0.551 0.292,-0.551C0.34,-0.551 0.388,-0.53 0.434,-0.487L0.487,-0.551C0.429,-0.607 0.359,-0.637 0.292,-0.637C0.131,-0.637 0.034,-0.494 0.034,-0.332C0.034,-0.163 0.137,-0.03 0.302,-0.03C0.368,-0.03 0.436,-0.065 0.491,-0.121L0.439,-0.184C0.398,-0.145 0.346,-0.116 0.302,-0.116C0.183,-0.116 0.122,-0.211 0.122,-0.332Z" style="fill:rgb(212,200,184);fill-rule:nonzero;"/>
            </g>
            <g transform="matrix(125,0,0,125,984.632,370.393)">
                <path d="M0.156,-0.623L0.072,-0.623L0.072,-0.045L0.155,-0.045L0.155,-0.289L0.415,-0.289L0.415,-0.045L0.499,-0.045L0.499,-0.623L0.415,-0.623L0.415,-0.372L0.155,-0.372C0.156,-0.551 0.156,-0.443 0.156,-0.623Z" style="fill:rgb(212,200,184);fill-rule:nonzero;"/>
            </g>
            <g transform="matrix(125,0,0,125,1055.76,370.393)">
                <path d="M0.178,-0.543C0.198,-0.543 0.218,-0.544 0.237,-0.544C0.308,-0.544 0.362,-0.536 0.362,-0.459C0.362,-0.408 0.325,-0.381 0.271,-0.381L0.149,-0.381L0.149,-0.543L0.178,-0.543ZM0.46,-0.045L0.311,-0.307C0.401,-0.319 0.456,-0.375 0.456,-0.459C0.456,-0.591 0.359,-0.623 0.237,-0.623L0.063,-0.623L0.063,-0.045L0.149,-0.045L0.149,-0.304L0.219,-0.304L0.368,-0.045L0.46,-0.045Z" style="fill:rgb(212,200,184);fill-rule:nonzero;"/>
            </g>
            <g transform="matrix(125,0,0,125,1115.76,370.393)">
                <path d="M0.159,-0.623L0.075,-0.623L0.075,-0.045L0.158,-0.045L0.159,-0.623Z" style="fill:rgb(212,200,184);fill-rule:nonzero;"/>
            </g>
            <g transform="matrix(125,0,0,125,1144.88,370.393)">
                <path d="M0.021,-0.114C0.073,-0.06 0.143,-0.03 0.208,-0.03C0.312,-0.03 0.399,-0.095 0.399,-0.203C0.399,-0.313 0.317,-0.342 0.239,-0.369C0.179,-0.39 0.122,-0.411 0.121,-0.473C0.122,-0.525 0.175,-0.553 0.215,-0.553C0.252,-0.553 0.295,-0.536 0.33,-0.502L0.393,-0.563C0.34,-0.613 0.276,-0.636 0.216,-0.636C0.121,-0.636 0.033,-0.572 0.033,-0.467C0.033,-0.346 0.122,-0.319 0.203,-0.291C0.258,-0.272 0.309,-0.252 0.309,-0.196C0.308,-0.139 0.259,-0.114 0.204,-0.113C0.165,-0.114 0.118,-0.138 0.084,-0.175L0.021,-0.114Z" style="fill:rgb(212,200,184);fill-rule:nonzero;"/>
            </g>
            <g transform="matrix(125,0,0,125,1198.13,370.393)">
                <path d="M0.174,-0.539L0.174,-0.045L0.257,-0.045L0.257,-0.539L0.417,-0.539L0.417,-0.622L0.013,-0.622L0.013,-0.539L0.174,-0.539Z" style="fill:rgb(212,200,184);fill-rule:nonzero;"/>
            </g>
            <g transform="matrix(125,0,0,125,1251.51,370.393)">
                <path d="M0.316,-0.095L0.367,-0.095C0.418,-0.217 0.473,-0.346 0.533,-0.484L0.533,-0.045L0.616,-0.045L0.616,-0.622L0.498,-0.622L0.341,-0.251L0.186,-0.622L0.068,-0.622L0.068,-0.045L0.15,-0.045L0.15,-0.482L0.316,-0.095Z" style="fill:rgb(212,200,184);fill-rule:nonzero;"/>
            </g>
            <g transform="matrix(125,0,0,125,1336.63,370.393)">
                <path d="M0.353,-0.267L0.177,-0.267L0.265,-0.505L0.353,-0.267ZM0.385,-0.184L0.437,-0.045L0.522,-0.045L0.305,-0.623L0.225,-0.623L0.008,-0.045L0.093,-0.045L0.145,-0.184L0.385,-0.184Z" style="fill:rgb(212,200,184);fill-rule:nonzero;"/>
            </g>
            <g transform="matrix(125,0,0,125,1402.88,370.393)">
                <path d="M0.021,-0.114C0.073,-0.06 0.143,-0.03 0.208,-0.03C0.312,-0.03 0.399,-0.095 0.399,-0.203C0.399,-0.313 0.317,-0.342 0.239,-0.369C0.179,-0.39 0.122,-0.411 0.121,-0.473C0.122,-0.525 0.175,-0.553 0.215,-0.553C0.252,-0.553 0.295,-0.536 0.33,-0.502L0.393,-0.563C0.34,-0.613 0.276,-0.636 0.216,-0.636C0.121,-0.636 0.033,-0.572 0.033,-0.467C0.033,-0.346 0.122,-0.319 0.203,-0.291C0.258,-0.272 0.309,-0.252 0.309,-0.196C0.308,-0.139 0.259,-0.114 0.204,-0.113C0.165,-0.114 0.118,-0.138 0.084,-0.175L0.021,-0.114Z" style="fill:rgb(212,200,184);fill-rule:nonzero;"/>
            </g>
            <g transform="matrix(125,0,0,125,1483.63,370.393)">
                <path d="M0.431,-0.622L0.072,-0.622L0.072,-0.045L0.431,-0.045L0.431,-0.13L0.156,-0.13L0.156,-0.297L0.39,-0.297L0.39,-0.382L0.156,-0.382L0.156,-0.537L0.431,-0.537L0.431,-0.622Z" style="fill:rgb(212,200,184);fill-rule:nonzero;"/>
            </g>
            <g transform="matrix(125,0,0,125,1541.63,370.393)">
                <path d="M0.007,-0.623C0.036,-0.54 0.073,-0.435 0.102,-0.353C0.137,-0.254 0.177,-0.144 0.211,-0.045L0.285,-0.045C0.318,-0.131 0.355,-0.226 0.387,-0.311C0.424,-0.406 0.47,-0.525 0.506,-0.623L0.42,-0.623C0.399,-0.567 0.372,-0.498 0.349,-0.439C0.316,-0.353 0.281,-0.264 0.249,-0.179L0.095,-0.623L0.007,-0.623Z" style="fill:rgb(212,200,184);fill-rule:nonzero;"/>
            </g>
            <g transform="matrix(125,0,0,125,1606.01,370.393)">
                <path d="M0.431,-0.622L0.072,-0.622L0.072,-0.045L0.431,-0.045L0.431,-0.13L0.156,-0.13L0.156,-0.297L0.39,-0.297L0.39,-0.382L0.156,-0.382L0.156,-0.537L0.431,-0.537L0.431,-0.622Z" style="fill:rgb(212,200,184);fill-rule:nonzero;"/>
            </g>
            <g transform="matrix(125,0,0,125,1691.51,370.393)">
                <path d="M0.021,-0.114C0.073,-0.06 0.143,-0.03 0.208,-0.03C0.312,-0.03 0.399,-0.095 0.399,-0.203C0.399,-0.313 0.317,-0.342 0.239,-0.369C0.179,-0.39 0.122,-0.411 0.121,-0.473C0.122,-0.525 0.175,-0.553 0.215,-0.553C0.252,-0.553 0.295,-0.536 0.33,-0.502L0.393,-0.563C0.34,-0.613 0.276,-0.636 0.216,-0.636C0.121,-0.636 0.033,-0.572 0.033,-0.467C0.033,-0.346 0.122,-0.319 0.203,-0.291C0.258,-0.272 0.309,-0.252 0.309,-0.196C0.308,-0.139 0.259,-0.114 0.204,-0.113C0.165,-0.114 0.118,-0.138 0.084,-0.175L0.021,-0.114Z" style="fill:rgb(212,200,184);fill-rule:nonzero;"/>
            </g>
            <g transform="matrix(125,0,0,125,1744.76,370.393)">
                <path d="M0.431,-0.622L0.072,-0.622L0.072,-0.045L0.431,-0.045L0.431,-0.13L0.156,-0.13L0.156,-0.297L0.39,-0.297L0.39,-0.382L0.156,-0.382L0.156,-0.537L0.431,-0.537L0.431,-0.622Z" style="fill:rgb(212,200,184);fill-rule:nonzero;"/>
            </g>
            <g transform="matrix(125,0,0,125,1802.76,370.393)">
                <path d="M0.178,-0.543C0.198,-0.543 0.218,-0.544 0.237,-0.544C0.308,-0.544 0.362,-0.536 0.362,-0.459C0.362,-0.408 0.325,-0.381 0.271,-0.381L0.149,-0.381L0.149,-0.543L0.178,-0.543ZM0.46,-0.045L0.311,-0.307C0.401,-0.319 0.456,-0.375 0.456,-0.459C0.456,-0.591 0.359,-0.623 0.237,-0.623L0.063,-0.623L0.063,-0.045L0.149,-0.045L0.149,-0.304L0.219,-0.304L0.368,-0.045L0.46,-0.045Z" style="fill:rgb(212,200,184);fill-rule:nonzero;"/>
            </g>
            <g transform="matrix(125,0,0,125,1862.76,370.393)">
                <path d="M0.007,-0.623C0.036,-0.54 0.073,-0.435 0.102,-0.353C0.137,-0.254 0.177,-0.144 0.211,-0.045L0.285,-0.045C0.318,-0.131 0.355,-0.226 0.387,-0.311C0.424,-0.406 0.47,-0.525 0.506,-0.623L0.42,-0.623C0.399,-0.567 0.372,-0.498 0.349,-0.439C0.316,-0.353 0.281,-0.264 0.249,-0.179L0.095,-0.623L0.007,-0.623Z" style="fill:rgb(212,200,184);fill-rule:nonzero;"/>
            </g>
            <g transform="matrix(125,0,0,125,1927.13,370.393)">
                <path d="M0.159,-0.623L0.075,-0.623L0.075,-0.045L0.158,-0.045L0.159,-0.623Z" style="fill:rgb(212,200,184);fill-rule:nonzero;"/>
            </g>
            <g transform="matrix(125,0,0,125,1956.26,370.393)">
                <path d="M0.122,-0.332C0.122,-0.447 0.178,-0.551 0.292,-0.551C0.34,-0.551 0.388,-0.53 0.434,-0.487L0.487,-0.551C0.429,-0.607 0.359,-0.637 0.292,-0.637C0.131,-0.637 0.034,-0.494 0.034,-0.332C0.034,-0.163 0.137,-0.03 0.302,-0.03C0.368,-0.03 0.436,-0.065 0.491,-0.121L0.439,-0.184C0.398,-0.145 0.346,-0.116 0.302,-0.116C0.183,-0.116 0.122,-0.211 0.122,-0.332Z" style="fill:rgb(212,200,184);fill-rule:nonzero;"/>
            </g>
            <g transform="matrix(125,0,0,125,2020.63,370.393)">
                <path d="M0.431,-0.622L0.072,-0.622L0.072,-0.045L0.431,-0.045L0.431,-0.13L0.156,-0.13L0.156,-0.297L0.39,-0.297L0.39,-0.382L0.156,-0.382L0.156,-0.537L0.431,-0.537L0.431,-0.622Z" style="fill:rgb(212,200,184);fill-rule:nonzero;"/>
            </g>
            <g transform="matrix(125,0,0,125,2078.63,370.393)">
                <path d="M0.021,-0.114C0.073,-0.06 0.143,-0.03 0.208,-0.03C0.312,-0.03 0.399,-0.095 0.399,-0.203C0.399,-0.313 0.317,-0.342 0.239,-0.369C0.179,-0.39 0.122,-0.411 0.121,-0.473C0.122,-0.525 0.175,-0.553 0.215,-0.553C0.252,-0.553 0.295,-0.536 0.33,-0.502L0.393,-0.563C0.34,-0.613 0.276,-0.636 0.216,-0.636C0.121,-0.636 0.033,-0.572 0.033,-0.467C0.033,-0.346 0.122,-0.319 0.203,-0.291C0.258,-0.272 0.309,-0.252 0.309,-0.196C0.308,-0.139 0.259,-0.114 0.204,-0.113C0.165,-0.114 0.118,-0.138 0.084,-0.175L0.021,-0.114Z" style="fill:rgb(212,200,184);fill-rule:nonzero;"/>
            </g>
        </g>
    </g>
</svg>
