<?xml version="1.0" standalone="no"?>
<!DOCTYPE svg PUBLIC "-//W3C//DTD SVG 20010904//EN"
 "http://www.w3.org/TR/2001/REC-SVG-20010904/DTD/svg10.dtd">
<svg version="1.0" xmlns="http://www.w3.org/2000/svg"
 width="260.000000pt" height="260.000000pt" viewBox="0 0 260.000000 260.000000"
 preserveAspectRatio="xMidYMid meet">
<metadata>
Created by potrace 1.14, written by Peter Selinger 2001-2017
</metadata>
<g transform="translate(0.000000,260.000000) scale(0.100000,-0.100000)"
fill="#000000" stroke="none">
<path d="M1271 2326 c-8 -9 -11 -61 -9 -161 3 -128 5 -149 21 -159 12 -8 22
-8 35 0 15 10 17 31 20 150 1 76 0 149 -3 162 -6 25 -45 31 -64 8z"/>
<path d="M1290 1913 c-25 -10 -30 -25 -30 -91 0 -57 2 -63 25 -74 40 -18 55 3
55 78 0 44 -5 67 -16 78 -8 9 -16 16 -17 15 -1 0 -9 -3 -17 -6z"/>
<path d="M372 1898 c-24 -24 -10 -49 77 -137 90 -91 117 -105 141 -76 22 26 3
58 -84 143 -82 80 -110 94 -134 70z"/>
<path d="M2172 1816 c-82 -83 -91 -96 -84 -117 6 -15 19 -25 33 -27 19 -2 44
17 117 91 88 91 92 96 81 121 -21 46 -48 33 -147 -68z"/>
<path d="M656 1621 c-24 -27 -20 -46 24 -91 31 -32 46 -41 67 -38 23 2 29 9
31 33 2 24 -5 38 -35 66 -49 46 -67 52 -87 30z"/>
<path d="M1948 1591 c-53 -53 -57 -74 -21 -98 21 -14 25 -12 74 34 55 53 60
81 18 104 -18 9 -27 3 -71 -40z"/>
<path d="M1225 1623 c-11 -2 -40 -9 -65 -16 -25 -6 -47 -12 -50 -13 -30 -6
-186 -82 -204 -99 -6 -5 -32 -27 -58 -47 -59 -48 -136 -144 -181 -228 -53 -98
-78 -189 -84 -312 l-6 -106 -263 0 c-145 0 -268 -3 -274 -7 -5 -3 -15 -15 -20
-25 -8 -15 -6 -24 8 -38 17 -17 77 -17 1272 -17 690 0 1260 4 1266 7 21 14 23
46 4 63 -16 15 -51 17 -261 18 l-242 2 -3 90 c-8 212 -112 431 -262 553 -26
20 -49 39 -52 42 -8 8 -43 29 -60 37 -8 3 -27 15 -42 25 -16 11 -28 16 -28 12
0 -3 -6 -2 -12 3 -7 6 -26 14 -43 18 -45 12 -45 12 -47 15 -2 1 -10 3 -18 5
-8 2 -28 6 -45 10 -33 7 -199 13 -230 8z"/>
<path d="M72 1088 c-18 -18 -15 -56 6 -66 9 -5 53 -8 97 -8 77 1 80 2 89 28
16 46 -4 58 -98 58 -50 0 -87 -5 -94 -12z"/>
<path d="M372 1088 c-16 -16 -15 -55 1 -65 24 -15 118 -10 140 8 19 14 20 20
9 43 -11 24 -16 26 -75 26 -36 0 -68 -5 -75 -12z"/>
<path d="M2126 1084 c-20 -19 -20 -24 -2 -50 12 -17 25 -20 76 -19 48 0 65 5
75 19 14 18 10 45 -9 58 -21 15 -124 9 -140 -8z"/>
<path d="M2382 1088 c-19 -19 -14 -46 11 -61 23 -15 152 -17 175 -4 18 12 15
64 -4 71 -29 11 -169 7 -182 -6z"/>
<path d="M472 539 c-38 -14 -37 -64 2 -78 11 -4 119 -7 239 -7 204 1 220 3
233 21 17 23 17 27 0 50 -13 18 -29 19 -234 20 -121 1 -229 -2 -240 -6z"/>
<path d="M1149 532 c-10 -7 -19 -22 -19 -32 0 -46 10 -47 608 -46 546 1 564 2
578 20 17 24 17 28 0 52 -14 18 -32 19 -581 19 -458 1 -570 -2 -586 -13z"/>
<path d="M713 272 c-17 -17 -17 -33 0 -56 13 -17 37 -19 391 -18 282 0 380 3
391 12 18 15 20 56 3 67 -7 4 -184 8 -392 8 -304 0 -382 -2 -393 -13z"/>
<path d="M1705 277 c-19 -10 -19 -51 0 -67 21 -17 329 -17 350 0 17 14 19 38
5 60 -8 12 -39 15 -175 15 -91 0 -172 -3 -180 -8z"/>
</g>
</svg>
